<svg width="24" height="24" viewBox="0 0 24 24" fill="none" xmlns="http://www.w3.org/2000/svg">
<g clip-path="url(#clip0_1_334)">
<path d="M16.8643 24.0021C16.6082 24.003 16.3551 23.9465 16.1237 23.8367C15.8923 23.727 15.6885 23.5668 15.5271 23.3679L7.24713 13.0821C6.99499 12.7754 6.85715 12.3906 6.85715 11.9936C6.85715 11.5965 6.99499 11.2117 7.24713 10.905L15.8186 0.61929C16.1095 0.269204 16.5277 0.0490478 16.981 0.007254C17.4343 -0.0345398 17.8856 0.105452 18.2357 0.396432C18.5858 0.687413 18.8059 1.10555 18.8477 1.55885C18.8895 2.01215 18.7495 2.46349 18.4586 2.81357L10.7957 12.0021L18.2014 21.1907C18.411 21.4423 18.5442 21.7488 18.5851 22.0737C18.6261 22.3986 18.5731 22.7285 18.4324 23.0243C18.2917 23.32 18.0693 23.5693 17.7914 23.7426C17.5135 23.9159 17.1918 24.006 16.8643 24.0021Z" fill="#C2CECD"/>
</g>
<defs>
<clipPath id="clip0_1_334">
<rect width="24" height="24" fill="white"/>
</clipPath>
</defs>
</svg>
