<svg width="24" height="24" viewBox="0 0 24 24" fill="none" xmlns="http://www.w3.org/2000/svg">
<g clip-path="url(#clip0_2318_1281)">
<path d="M19.9124 14.475H17.0999V15.9H19.9124C20.2874 15.9 20.6249 16.2 20.6249 16.6125C20.6249 17.025 20.3249 17.325 19.9124 17.325H2.3624C1.9874 17.325 1.6499 17.625 1.6499 18.0375C1.6499 18.4125 1.9499 18.75 2.3624 18.75H19.9499C21.1124 18.75 22.0499 17.8125 22.0499 16.65C22.0499 15.4125 21.0749 14.475 19.9124 14.475Z" fill="#C2CECD"/>
<path d="M20.4373 9.6375L19.0498 9.525C19.0498 9.4875 19.9123 4.35 20.0998 3.3C20.2123 2.7 20.4373 1.0125 22.5748 1.0125V2.4375C21.7123 2.4375 21.5998 2.775 21.5248 3.4125C21.2998 4.4625 20.4373 9.5625 20.4373 9.6375Z" fill="#C2CECD"/>
<path d="M20.5124 4.6125H1.4999C0.787396 4.6125 0.674896 5.2875 0.787396 5.6625L2.9249 15.1875C3.0374 15.5625 3.4124 15.8625 3.8249 15.8625H18.7499C19.1249 15.8625 19.4999 15.5625 19.5749 15.15L21.1499 5.2875C21.1874 4.95 20.8874 4.6125 20.5124 4.6125ZM2.5874 7.8L2.2124 6.375C2.1749 6.1875 2.2874 6.0375 2.4749 6.0375H5.1374C5.3249 6.0375 5.5124 6.1875 5.5124 6.375L5.6624 7.8C5.6999 7.9875 5.5499 8.1375 5.3624 8.1375H2.9999C2.8124 8.1375 2.6249 7.9875 2.5874 7.8ZM3.7874 11.2875C3.5999 11.2875 3.4124 11.1375 3.3374 10.95L3.0749 9.8625C3.0374 9.675 3.1499 9.525 3.3374 9.525H5.4749C5.6624 9.525 5.8499 9.675 5.8499 9.8625L5.9624 10.9125C5.9999 11.1 5.8499 11.25 5.6624 11.25C5.6999 11.2875 3.7874 11.2875 3.7874 11.2875ZM6.0374 14.475H4.5749C4.3874 14.475 4.1999 14.325 4.1249 14.1375L3.8624 13.05C3.8249 12.8625 3.9374 12.7125 4.1249 12.7125H5.8124C5.9999 12.7125 6.1874 12.8625 6.1874 13.05L6.29989 14.1C6.3749 14.2875 6.2249 14.475 6.0374 14.475ZM10.3499 14.1C10.3499 14.2875 10.1999 14.4375 10.0124 14.4375H8.1749C7.9874 14.4375 7.7999 14.2875 7.7999 14.1L7.6874 13.05C7.6499 12.8625 7.7999 12.7125 7.9874 12.7125H10.0124C10.1999 12.7125 10.3499 12.8625 10.3499 13.05V14.1ZM10.3499 10.95C10.3499 11.1375 10.1999 11.2875 10.0124 11.2875H7.8374C7.6499 11.2875 7.4624 11.1375 7.4624 10.95L7.3499 9.9C7.3124 9.7125 7.4624 9.5625 7.6499 9.5625H10.0124C10.1999 9.5625 10.3499 9.7125 10.3499 9.9V10.95ZM10.3499 7.8C10.3499 7.9875 10.1999 8.1375 10.0124 8.1375H7.4999C7.3124 8.1375 7.1249 7.9875 7.1249 7.8L6.9374 6.375C6.8999 6.1875 7.0499 6.0375 7.2374 6.0375H9.9749C10.1624 6.0375 10.3124 6.1875 10.3124 6.375C10.3499 6.375 10.3499 7.8 10.3499 7.8ZM14.1749 14.1C14.1374 14.2875 13.9874 14.4375 13.7999 14.4375H12.1499C11.9624 14.4375 11.8124 14.2875 11.8124 14.1V13.05C11.8124 12.8625 11.9624 12.7125 12.1499 12.7125H13.9874C14.1749 12.7125 14.3249 12.8625 14.2874 13.05L14.1749 14.1ZM14.5124 10.95C14.4749 11.1375 14.3249 11.2875 14.1374 11.2875H12.1499C11.9624 11.2875 11.8124 11.1375 11.8124 10.95V9.9C11.8124 9.7125 11.9624 9.5625 12.1499 9.5625H14.3249C14.5124 9.5625 14.6624 9.7125 14.6249 9.9L14.5124 10.95ZM14.8499 7.8C14.8124 7.9875 14.6624 8.1375 14.4749 8.1375H12.1499C11.9624 8.1375 11.8124 7.9875 11.8124 7.8V6.375C11.8124 6.1875 11.9624 6.0375 12.1499 6.0375H14.6999C14.8874 6.0375 15.0374 6.1875 14.9999 6.375L14.8499 7.8ZM18.1124 14.1C18.0749 14.2875 17.8874 14.4375 17.6999 14.4375H15.8999C15.7124 14.4375 15.5624 14.2875 15.5999 14.1L15.7124 13.05C15.7499 12.8625 15.8999 12.7125 16.0874 12.7125H17.9999C18.1874 12.7125 18.3374 12.8625 18.2999 13.05L18.1124 14.1ZM18.5999 10.95C18.5624 11.1375 18.3749 11.2875 18.1874 11.2875H16.1999C16.0124 11.2875 15.8624 11.1375 15.8999 10.95L16.0124 9.9C16.0499 9.7125 16.1999 9.5625 16.3874 9.5625H18.4499C18.6374 9.5625 18.7874 9.7125 18.7499 9.9L18.5999 10.95ZM19.0874 7.8C19.0499 7.9875 18.8624 8.1375 18.6749 8.1375H16.5374C16.3499 8.1375 16.1999 7.9875 16.2374 7.8L16.3874 6.375C16.4249 6.1875 16.5749 6.0375 16.7624 6.0375H18.9749C19.1624 6.0375 19.3124 6.1875 19.2749 6.375L19.0874 7.8Z" fill="#F7F9F9"/>
<path d="M4.61245 23.25C5.77225 23.25 6.71245 22.3098 6.71245 21.15C6.71245 19.9902 5.77225 19.05 4.61245 19.05C3.45265 19.05 2.51245 19.9902 2.51245 21.15C2.51245 22.3098 3.45265 23.25 4.61245 23.25Z" fill="#F7F9F9"/>
<path d="M4.6125 22.2C5.1924 22.2 5.6625 21.7299 5.6625 21.15C5.6625 20.5701 5.1924 20.1 4.6125 20.1C4.0326 20.1 3.5625 20.5701 3.5625 21.15C3.5625 21.7299 4.0326 22.2 4.6125 22.2Z" fill="#50758A" fill-opacity="0.1"/>
<path d="M17.2875 23.25C18.4473 23.25 19.3875 22.3098 19.3875 21.15C19.3875 19.9902 18.4473 19.05 17.2875 19.05C16.1277 19.05 15.1875 19.9902 15.1875 21.15C15.1875 22.3098 16.1277 23.25 17.2875 23.25Z" fill="#F7F9F9"/>
<path d="M18.3376 21.15C18.3376 21.75 17.85 22.2 17.2875 22.2C16.6875 22.2 16.2375 21.7125 16.2375 21.15C16.2375 20.55 16.725 20.1 17.2875 20.1C17.85 20.1 18.3376 20.55 18.3376 21.15Z" fill="#50758A" fill-opacity="0.1"/>
<path d="M22.9125 0.75H21.8625V2.85H22.9125C23.1 2.85 23.25 2.7 23.25 2.5125V1.0875C23.25 0.9 23.1 0.75 22.9125 0.75Z" fill="#F7F9F9"/>
<path d="M4.61255 18.3375C3.07505 18.3375 1.80005 19.6125 1.80005 21.15H7.42505C7.42505 19.575 6.18755 18.3375 4.61255 18.3375Z" fill="#DF4243"/>
<path d="M17.2876 18.3375C15.7501 18.3375 14.4751 19.6125 14.4751 21.15H20.1001C20.1001 19.575 18.8251 18.3375 17.2876 18.3375Z" fill="#DF4243"/>
</g>
<defs>
<clipPath id="clip0_2318_1281">
<rect width="24" height="24" fill="white"/>
</clipPath>
</defs>
</svg>
